# xmcd CD database file
#
# Track frame offsets:
#	150
#	18177
#	35127
#	53458
#	72637
#	92455
#	110921
#	130122
#	149879
#	170727
#	186440
#	209677
#	232261
#	251007
#
# Disc length: 3599 seconds
#
# Revision: 2
# Processed by: cddbd v1.4PL0 Copyright (c) Steve Scherf et al.
# Submitted via: CDex 1.50beta10
#
DISCID=e00e0d0e
DTITLE=ALEX BARONI - SEMPLICEMENTE
DYEAR=2002
DGENRE=Easy Listening
TTITLE0=La distanza di un amore
TTITLE1=Binario
TTITLE2=Speriamo
TTITLE3=Onde
TTITLE4=Dimmi che ci sei
TTITLE5=Pavimento liquido
TTITLE6=Cambiare
TTITLE7=Sei tu o lei (quello che voglio)
TTITLE8=Ce la farò
TTITLE9=Scrivi qualcosa per me
TTITLE10=Male che fa male
TTITLE11=Signora fantasia
TTITLE12=La voce della luna
TTITLE13=Dedicato a te
EXTD=YEAR: 2002
EXTT0=
EXTT1=
EXTT2=
EXTT3=
EXTT4=
EXTT5=
EXTT6=
EXTT7=
EXTT8=
EXTT9=
EXTT10=
EXTT11=
EXTT12=
EXTT13=
PLAYORDER=
